#!OML:ASF E:\Steps\Project 1\Capture day 1\Session 2\Subject.ASF
:FULLY-SPECIFIED
:DEGREES
525
root 10.0234 16.4325 3.78526 -160.968 0.462608 176.741
lowerback -18.6118 -0.656628 -6.12068
upperback 3.52363 0.621148 -0.39042
thorax 14.5003 -0.231349 3.23034
lowerneck -3.69179 -0.965318 -1.74455
upperneck 21.3792 -3.4336 3.27551
head 7.21918 -2.09853 1.03499
rclavicle -1.59649e-015 2.29224e-014
rhumerus -28.7708 -12.9413 -81.4503
rradius 41.622
rwrist -3.01683
rhand -7.40458 -53.6079
rfingers 7.12502
rthumb 18.4817 -82.7499
lclavicle -1.59649e-015 2.29224e-014
lhumerus -33.0681 5.70717 80.0147
lradius 28.311
lwrist -6.40698
lhand -20.4856 -10.249
lfingers 7.12502
lthumb 5.87096 19.6496
rfemur -20.8431 6.71772 20.6294
rtibia 11.5345
rfoot -18.2776 -9.31408
rtoes -37.4363
lfemur -79.6763 -2.32741 -21.6813
ltibia 82.2766
lfoot -18.0922 7.1439
ltoes -26.2208
526
root 10.0234 16.4334 3.72386 -161.016 0.54245 176.722
lowerback -18.5737 -0.538462 -6.10325
upperback 3.54901 0.784404 -0.485518
thorax 14.4914 -0.151004 3.16131
lowerneck -3.63952 -1.01303 -1.70605
upperneck 21.48 -3.53068 3.28111
head 7.24526 -2.14787 1.02268
rclavicle -3.54338e-015 2.35606e-014
rhumerus -28.6505 -12.8459 -81.6969
rradius 41.5896
rwrist -2.88753
rhand -7.63084 -53.2553
rfingers 7.12502
rthumb 18.264 -82.4178
lclavicle -3.54338e-015 2.35606e-014
lhumerus -33.0531 5.44207 79.9664
lradius 28.1368
lwrist -6.27765
lhand -20.5871 -10.4918
lfingers 7.12502
lthumb 5.77299 19.4096
rfemur -20.6743 6.67004 20.6282
rtibia 11.7599
rfoot -18.5309 -9.27275
rtoes -37.3319
lfemur -79.7763 -2.27138 -21.5787
ltibia 80.75
lfoot -17.906 6.77888
ltoes -25.0978
527
root 10.0223 16.4348 3.65909 -161.125 0.620805 176.601
lowerback -18.512 -0.524907 -6.17354
upperback 3.64825 0.894328 -0.560483
thorax 14.5653 -0.0800141 3.15574
lowerneck -3.77205 -1.00186 -1.82945
upperneck 21.4888 -3.4997 3.3534
head 7.27375 -2.12942 1.06822
rclavicle -1.15078e-015 9.02296e-015
rhumerus -28.4413 -12.3785 -81.9809
rradius 41.7854
rwrist -3.11834
rhand -5.9424 -57.1199
rfingers 7.12502
rthumb 19.8877 -86.1223
lclavicle -1.15078e-015 9.02296e-015
lhumerus -32.9771 5.44894 79.9449
lradius 27.9918
lwrist -6.46561
lhand -20.8053 -10.771
lfingers 7.12502
lthumb 5.56237 19.1359
rfemur -20.3561 6.57766 20.5151
rtibia 11.858
rfoot -18.7687 -9.16803
rtoes -37.1711
lfemur -79.7394 -2.2739 -21.6087
ltibia 79.2046
lfoot -17.5723 6.53214
ltoes -24.448
528
root 10.0242 16.4339 3.59335 -161.152 0.646029 176.535
lowerback -18.5074 -0.493209 -6.20442
upperback 3.69343 0.956909 -0.621459
thorax 14.6112 -0.0519828 3.12316
lowerneck -3.77134 -0.950478 -1.86905
upperneck 21.4124 -3.39946 3.33957
head 7.24589 -2.08032 1.07889
rclavicle 4.93856e-015 1.63749e-014
rhumerus -28.3258 -11.8727 -82.2618
rradius 42.0465
rwrist -3.48424
rhand -5.54064 -58.0822
rfingers 7.12502
rthumb 20.2739 -87.0441
lclavicle 4.93856e-015 1.63749e-014
lhumerus -32.9905 5.53424 79.8239
lradius 27.9575
lwrist -6.57319
lhand -20.8227 -10.6681
lfingers 7.12502
lthumb 5.54558 19.2393
rfemur -20.0124 6.55958 20.4868
rtibia 11.7833
rfoot -18.9876 -9.13981
rtoes -37.2484
lfemur -79.8155 -2.22799 -21.6521
ltibia 77.7944
lfoot -16.9886 6.27248
ltoes -26.8239
529
root 10.026 16.4297 3.53228 -161.085 0.677661 176.493
lowerback -18.5796 -0.473651 -6.25021
upperback 3.6967 1.0162 -0.709007
thorax 14.6544 -0.0237069 3.06894
lowerneck -3.94017 -0.918897 -1.92314
upperneck 21.716 -3.42464 3.48429
head 7.37932 -2.09181 1.12896
rclavicle 6.49777e-015 -2.57923e-014
rhumerus -28.1787 -11.4617 -82.6148
rradius 42.2142
rwrist -3.68834
rhand -6.07883 -57.3697
rfingers 7.12502
rthumb 19.7566 -86.3857
lclavicle 6.49777e-015 -2.57923e-014
lhumerus -33.0439 5.46476 79.6477
lradius 28.0322
lwrist -6.38172
lhand -20.8285 -10.4334
lfingers 7.12502
lthumb 5.53992 19.4741
rfemur -19.825 6.58961 20.4689
rtibia 11.7768
rfoot -19.2595 -9.1999
rtoes -37.4794
lfemur -79.9567 -2.1955 -21.6611
ltibia 76.4693
lfoot -16.5843 6.03102
ltoes -28.95
